<svg width="177" height="30" viewBox="0 0 177 30" fill="none" xmlns="http://www.w3.org/2000/svg">
<path fill-rule="evenodd" clip-rule="evenodd" d="M72.2662 14.9922V29.1577H75.2097H78.1532V25.946V22.7343L81.3799 25.946L84.6067 29.1577H90.2104H95.814V20.6952V12.2327H90.0268H84.2395L81.1963 15.26L78.1532 18.2874V9.55703V0.82666H75.2097H72.2662V14.9922ZM65.8917 2.31349C64.4733 3.42907 64.0487 4.67453 64.559 6.22096C65.0064 7.5768 66.4664 8.5533 68.0449 8.5533C69.4993 8.5533 71.1624 6.71436 71.1624 5.10685C71.1624 2.3363 67.9959 0.658146 65.8917 2.31349ZM90.9113 2.31349C89.4929 3.42907 89.0683 4.67453 89.5786 6.22096C90.0261 7.5768 91.486 8.5533 93.0645 8.5533C94.5189 8.5533 96.182 6.71436 96.182 5.10685C96.182 2.3363 93.0155 0.658146 90.9113 2.31349ZM54.2374 8.5533V11.8647H52.7656H51.2939L51.2795 14.1643C51.2655 16.3918 51.2497 16.4293 50.7743 15.3601C49.2787 11.9942 44.6166 10.7782 40.8625 12.7743C39.2223 13.6463 39.152 13.654 39.152 12.9582C39.152 12.2967 38.8926 12.2327 36.2085 12.2327H33.265V15.6029V18.9729L32.1362 16.7137C30.3521 13.1437 27.4428 11.5005 22.9628 11.5328C19.8126 11.5557 18.5292 11.9435 16.2355 13.5657C13.8358 15.2633 12.912 17.4062 13.0871 20.8699C13.2692 24.4761 14.4378 26.2326 17.8268 27.9946C20.0882 29.1706 20.3546 29.2228 23.3308 29.076C27.9727 28.8468 30.784 27.0671 32.5001 23.2707L33.2488 21.615L33.2569 25.3863L33.265 29.1577H36.2085H39.152V23.8528C39.152 20.9351 39.255 18.2797 39.3805 17.9522C39.6778 17.1781 41.4314 16.2799 42.6459 16.2799C43.171 16.2799 44.0069 16.6865 44.5036 17.1832C45.3826 18.0619 45.4069 18.2352 45.4069 23.6221V29.1577H48.3504H51.2939V23.0868V17.0158H52.7656H54.2374V23.0868V29.1577H57.1808H60.1243V23.0868V17.0158H61.78H63.4357V14.4403V11.8647H61.78H60.1243V8.5533V5.24188H57.1808H54.2374V8.5533ZM5.30195 12.6304C1.85918 14.189 0 16.9522 0 20.5112C0 26.7444 6.36271 30.7575 12.7791 28.5712C13.7258 28.2485 14.5003 27.9119 14.5003 27.8232C14.5003 27.7341 14.0989 26.8691 13.6081 25.9007L12.7158 24.1398L10.506 24.2995C8.52175 24.443 8.20201 24.3646 7.36607 23.5286C6.20192 22.3645 5.83729 20.9697 6.26116 19.3003C6.81711 17.1104 9.03502 16.0621 11.64 16.7575C12.5683 17.0055 12.7151 16.8837 13.6037 15.1305C14.6685 13.0289 14.6085 12.8964 12.2927 12.236C10.1837 11.6348 7.11992 11.8073 5.30195 12.6304ZM64.9075 20.6952V29.1577H67.851H70.7944V20.6952V12.2327H67.851H64.9075V20.6952ZM86.4453 17.7377L83.5331 20.6676L84.2465 21.4586C84.6387 21.8939 86.0774 23.2417 87.4435 24.454L89.9271 26.6579V20.7331C89.9271 17.4743 89.799 14.8082 89.6427 14.8082C89.4859 14.8082 88.0473 16.1265 86.4453 17.7377ZM21.1232 16.9246C18.2805 18.3444 18.41 22.6357 21.3322 23.8568C24.0405 24.9886 26.6422 23.3186 26.6422 20.4479C26.6422 18.4802 25.8677 17.2027 24.3555 16.6755C22.8558 16.1526 22.6335 16.1699 21.1232 16.9246Z" fill="#D73239"/>
<path fill-rule="evenodd" clip-rule="evenodd" d="M97.1353 3.58618V6.34569H100.263H103.39V17.7517V29.1577H106.518H109.645V25.9544V22.7512L110.841 24.7244C112.497 27.4563 114.982 28.8413 118.651 29.0767C123.478 29.3865 127.22 27.3533 129 23.4547C129.827 21.6415 129.84 21.6323 129.86 22.8226C129.937 27.2025 133.622 29.4616 140.078 29.0881C143.939 28.8644 146.16 27.821 147.258 25.7156C147.957 24.3749 148.072 23.4451 148.208 18.0276L148.363 11.8647H145.377H142.391L142.389 16.3719C142.386 23.1964 141.858 24.3745 138.8 24.3745C137.753 24.3745 137.139 24.1302 136.515 23.4665C135.725 22.6246 135.649 22.1662 135.481 17.2116L135.299 11.8647H132.59H129.882L129.86 15.4521L129.839 19.0395L128.994 17.1998C128.011 15.0584 126.622 13.5804 124.551 12.4726C123.339 11.8242 122.449 11.6826 119.579 11.6819C116.406 11.6808 115.906 11.7794 114.151 12.7518C112.243 13.8089 110.693 15.4414 110.031 17.0901C109.801 17.6626 109.684 16.0643 109.668 12.1407L109.645 6.34569H112.956H116.268V3.58618V0.82666H106.702H97.1353V3.58618ZM158.396 12.0755C157.789 12.3912 156.92 12.9983 156.465 13.4251L155.637 14.2007V13.0325V11.8647H152.693H149.75V20.3272V28.7897H152.693H155.637V23.7075C155.637 18.6366 155.639 18.623 156.649 17.684C157.951 16.4731 159.171 16.2141 160.831 16.7965L162.161 17.2631L163.332 14.8884C163.976 13.5826 164.454 12.4729 164.393 12.4232C163.126 11.3768 160.079 11.1999 158.396 12.0755ZM167.227 12.1922C165.102 13.1731 164.042 14.4804 163.858 16.3491C163.623 18.7282 164.27 19.5811 167.595 21.275C170.551 22.7814 171.191 23.5507 170.34 24.5762C169.723 25.319 169 25.2432 166.762 24.2016L164.826 23.3002L163.889 24.7851C162.418 27.1153 162.424 27.1959 164.161 28.1219C165.505 28.8383 166.304 28.9715 169.251 28.9715C172.146 28.9715 173.006 28.8328 174.259 28.1632C176.694 26.8621 177.722 23.5698 176.457 21.1238C175.904 20.055 175.625 19.8798 171.734 18.1597C169.072 16.9831 168.603 16.1913 170.149 15.4867C170.851 15.1673 171.464 15.2137 172.949 15.6993C173.995 16.0415 174.895 16.2707 174.949 16.2086C175.526 15.5466 176.598 12.8169 176.363 12.6068C175.807 12.1087 172.636 11.4968 170.651 11.5049C169.546 11.5093 168.06 11.8077 167.227 12.1922ZM117.526 16.9735C114.902 18.574 115.061 22.342 117.815 23.8167C119.081 24.4948 119.29 24.5077 120.728 24.0007C122.87 23.2453 123.847 21.4082 123.262 19.2345C122.559 16.6265 119.848 15.5577 117.526 16.9735Z" fill="black"/>
</svg>
